<svg viewBox="0 0 96 96" fill="none" xmlns="http://www.w3.org/2000/svg">
<path d="M49 11C36 19 28 36 31 55c3 18 16 30 26 30 10 0 22-10 26-26 5-21-7-38-20-47-4-3-10-5-14-1Z" fill="#6F45B9" opacity=".92"/>
<path d="M53 13c11 2 20 15 21 29 1 17-8 31-20 39-4 3-9 4-13 4" stroke="#fff" stroke-width="1.5" opacity=".25"/>
<path d="M52 8c2 6 5 13 9 18" stroke="#78B84D" stroke-width="7" stroke-linecap="round"/>
<path d="M60 11c8 0 13 3 17 8-5 2-10 5-16 6-7 1-11 0-15-3 4-5 8-8 14-11Z" fill="#78B84D"/>
</svg>
